<?xml version="1.0" encoding="UTF-8"?>
<svg xmlns="http://www.w3.org/2000/svg" version="1.1" viewBox="0 0 60 60">
  <!-- Generator: Adobe Illustrator 29.6.1, SVG Export Plug-In . SVG Version: 2.1.1 Build 9)  -->
  <defs>
    <style>
      .st0, .st1 {
        isolation: isolate;
      }

      .st1 {
        fill: #fff;
        mix-blend-mode: exclusion;
      }
    </style>
  </defs>
  <g class="st0">
    <g id="Layer_1">
      <rect width="60" height="60"/>
      <path class="st1" d="M31.3,16.3c1.7,0,2.6,1.1,3.3,2.4.6,1.2.8,2.8,1.5,4,.6,1.2,1.8,2.1,3.2,2.1,2,0,3.7-1.7,3.6-3.9-.1-2.8-2.5-4.4-3.7-5-2.2-1.2-4.9-1.5-7.6-1.3-8.3.9-14.6,7.9-14.6,16.5s6,14.2,13.7,14.2,10-3.5,11.8-8.5l-.3-.2c-1.9,2.3-4.2,3.3-6.8,3.3-6.3,0-10.5-4.8-10.5-13,0-5.9,3.2-10.6,6.3-10.6Z"/>
    </g>
  </g>
</svg>